<?xml version="1.0" encoding="UTF-8"?><svg id="Layer_2" xmlns="http://www.w3.org/2000/svg" viewBox="0 0 98.18 48.73"><defs><style>.cls-1{fill:#fff;}</style></defs><g id="Layer_1-2"><g><path class="cls-1" d="M.6,42.81c-.6-.48-.84-.84-.3-1.8l2.16-3.72c.48-.84,1.5-.84,2.04-.42,2.46,1.86,5.16,3.72,9.06,3.72,3.12,0,5.46-2.04,5.46-4.62,0-3.06-2.58-5.16-7.62-7.2C5.76,26.49,.12,22.89,.12,15.81,.12,10.47,4.08,4.29,13.62,4.29c6.12,0,10.8,3.12,12,4.02,.6,.36,.78,1.38,.36,1.98l-2.28,3.42c-.48,.72-1.38,1.2-2.1,.72-2.58-1.62-5.04-3.3-8.34-3.3s-5.28,1.92-5.28,4.2c0,2.82,2.22,4.74,7.08,6.72,5.82,2.34,12.54,5.82,12.54,13.56,0,6.18-5.34,11.88-13.8,11.88-7.56,0-11.46-3.18-13.2-4.68Z"/><g><path class="cls-1" d="M54.47,45.14c-12.64,0-22.54-9.87-22.54-22.48S42.04,0,54.47,0c5.46,0,10.89,2.07,15.29,5.82,.5,.5,.74,1.07,.74,1.66,0,.56-.22,1.09-.62,1.49l-3.7,3.88c-.87,.87-2.02,.88-2.95,.06-2.39-2.11-5.29-3.23-8.4-3.23-6.86,0-12.44,5.8-12.44,12.92s5.61,12.74,12.5,12.74c2.68,0,4.87-.7,6.14-1.18v-3.42h-3.8c-1.2,0-2.14-.91-2.14-2.08v-4.74c0-1.22,.92-2.14,2.14-2.14h11.52c1.13,0,2.08,.98,2.08,2.14v15.36c0,.71-.31,1.33-.88,1.76-.33,.21-6.59,4.1-15.48,4.1Zm0-43.14c-11.33,0-20.54,9.27-20.54,20.66s9.02,20.48,20.54,20.48c8.28,0,14.29-3.71,14.35-3.75,0,0,.01-.04,.01-.11v-15.36c0-.07-.06-.13-.08-.14h-11.52c-.11,0-.14,.03-.14,.14v4.74c0,.07,.1,.08,.14,.08h5.8v6.78l-.63,.25c-1.17,.47-3.93,1.57-7.51,1.57-8,0-14.5-6.61-14.5-14.74s6.48-14.92,14.44-14.92c3.55,0,7,1.32,9.72,3.73,.06,.05,.11,.08,.13,.1,0-.01,.03-.03,.06-.06l3.76-3.98s-.03-.12-.1-.19c-3.98-3.39-8.95-5.29-13.93-5.29Z"/><path class="cls-1" d="M90.28,24.4h-2.55c-1.05,0-1.5-.65-1.74-1.14l-1.18-2.61h-7.46l-1.17,2.57c-.28,.71-.96,1.17-1.76,1.17h-2.55c-.55,0-1.04-.26-1.32-.7-.28-.44-.31-.99-.08-1.48L79.57,2.53c.29-.58,.8-.9,1.41-.9h.29c.44,0,1.03,.15,1.39,.88l9.03,19.72c.23,.49,.19,1.04-.09,1.48-.28,.44-.77,.7-1.32,.7Zm-.41-1.34h0Zm-17.28-.66h1.77l1.7-3.75h10.04l1.7,3.74h1.77L81.12,3.94l-8.53,18.46Zm12.98-4.99h-8.97l3.76-8.44h1.29l.35,.59,3.57,7.85Zm-5.89-2h2.79l-1.41-3.1-1.38,3.1Z"/><path class="cls-1" d="M96.62,24.4h-2.72c-.84,0-1.56-.71-1.56-1.56V3.47c0-.84,.71-1.56,1.56-1.56h2.72c.84,0,1.55,.71,1.55,1.56V22.84c0,.84-.71,1.56-1.55,1.56Zm-2.28-2h1.83V3.92h-1.83V22.4Z"/></g><g><path class="cls-1" d="M50.33,5.59c5.4,0,10.56,2.1,14.64,5.58,.48,.48,.54,1.2,.06,1.68l-3.72,3.9c-.48,.48-1.02,.48-1.56,0-2.58-2.28-5.76-3.48-9.06-3.48-7.5,0-13.44,6.42-13.44,13.92s5.94,13.74,13.5,13.74c3.36,0,5.94-1.02,7.14-1.5v-5.1h-4.8c-.66,0-1.14-.48-1.14-1.08v-4.74c0-.66,.48-1.14,1.14-1.14h11.52c.6,0,1.08,.54,1.08,1.14v15.36c0,.48-.24,.78-.48,.96,0,0-6.18,3.9-14.88,3.9-11.94,0-21.54-9.48-21.54-21.48S38.39,5.59,50.33,5.59Z"/><path class="cls-1" d="M71.37,47.21l9.1-19.69c.09-.18,.23-.32,.5-.32h.29c.29,0,.41,.15,.5,.32l9.01,19.69c.18,.38-.06,.76-.5,.76h-2.55c-.44,0-.64-.18-.85-.58l-1.43-3.16h-8.75l-1.43,3.16c-.12,.29-.38,.58-.85,.58h-2.55c-.44,0-.67-.38-.5-.76Zm12.64-6.23l-2.93-6.44h-.09l-2.87,6.44h5.88Z"/><path class="cls-1" d="M93.9,27.49h2.72c.31,0,.56,.25,.56,.56v19.37c0,.31-.25,.56-.56,.56h-2.72c-.31,0-.56-.25-.56-.56V28.05c0-.31,.25-.56,.56-.56Z"/></g></g></g></svg>