<?xml version="1.0" encoding="UTF-8"?><svg id="Layer_2" xmlns="http://www.w3.org/2000/svg" viewBox="0 0 133.52 65.09"><defs><style>.cls-1{fill:#e9c46a;}.cls-2{fill:#e76f51;}.cls-3{fill:#264653;}.cls-4{fill:none;stroke:#264653;stroke-miterlimit:10;stroke-width:2px;}</style></defs><g id="Layer_1-2"><g><path class="cls-2" d="M.82,57.01c-.82-.65-1.15-1.15-.41-2.45l2.95-5.07c.65-1.15,2.05-1.15,2.78-.57,3.35,2.54,7.04,5.07,12.35,5.07,4.25,0,7.45-2.78,7.45-6.3,0-4.17-3.52-7.04-10.39-9.82C7.86,34.76,.16,29.85,.16,20.19,.16,12.91,5.56,4.49,18.57,4.49c8.35,0,14.73,4.25,16.36,5.48,.82,.49,1.06,1.88,.49,2.7l-3.11,4.66c-.65,.98-1.88,1.64-2.86,.98-3.52-2.21-6.87-4.5-11.37-4.5s-7.2,2.62-7.2,5.73c0,3.84,3.03,6.46,9.65,9.16,7.94,3.19,17.1,7.94,17.1,18.49,0,8.43-7.28,16.2-18.82,16.2-10.31,0-15.63-4.34-18-6.38Z"/><path class="cls-3" d="M74.28,0c7.36,0,14.4,2.86,19.96,7.61,.65,.66,.74,1.64,.08,2.29l-5.07,5.32c-.65,.65-1.39,.65-2.13,0-3.52-3.11-7.85-4.75-12.35-4.75-10.23,0-18.33,8.75-18.33,18.98s8.1,18.74,18.41,18.74c4.58,0,8.1-1.39,9.74-2.05v-6.95h-6.55c-.9,0-1.55-.66-1.55-1.47v-6.46c0-.9,.65-1.56,1.55-1.56h15.71c.82,0,1.47,.74,1.47,1.56v20.95c0,.65-.33,1.06-.65,1.31,0,0-8.43,5.32-20.29,5.32-16.28,0-29.37-12.93-29.37-29.29S58,0,74.28,0Z"/><path class="cls-1" d="M68.64,6.27c7.36,0,14.4,2.86,19.96,7.61,.65,.66,.74,1.64,.08,2.29l-5.07,5.32c-.65,.65-1.39,.65-2.13,0-3.52-3.11-7.85-4.75-12.35-4.75-10.23,0-18.33,8.75-18.33,18.98s8.1,18.74,18.41,18.74c4.58,0,8.1-1.39,9.74-2.05v-6.95h-6.55c-.9,0-1.55-.66-1.55-1.47v-6.46c0-.9,.65-1.56,1.55-1.56h15.71c.82,0,1.47,.74,1.47,1.56v20.95c0,.65-.33,1.06-.65,1.31,0,0-8.43,5.32-20.29,5.32-16.28,0-29.37-12.93-29.37-29.29S52.36,6.27,68.64,6.27Z"/><g><path class="cls-4" d="M97.33,29.51L109.74,2.66c.12-.24,.32-.44,.68-.44h.4c.4,0,.56,.2,.68,.44l12.29,26.86c.24,.52-.08,1.04-.68,1.04h-3.47c-.6,0-.88-.24-1.16-.8l-1.96-4.31h-11.93l-1.96,4.31c-.16,.4-.52,.8-1.16,.8h-3.47c-.6,0-.92-.52-.68-1.04Zm17.24-8.5l-3.99-8.78h-.12l-3.91,8.78h8.02Z"/><path class="cls-4" d="M127.3,3.37c0-.4,.36-.76,.76-.76h3.71c.4,0,.76,.36,.76,.76V29.79c0,.4-.36,.76-.76,.76h-3.71c-.4,0-.76-.36-.76-.76V3.37Z"/></g><g><path class="cls-1" d="M97.33,63.02l12.41-26.86c.12-.24,.32-.44,.68-.44h.4c.4,0,.56,.2,.68,.44l12.29,26.86c.24,.52-.08,1.04-.68,1.04h-3.47c-.6,0-.88-.24-1.16-.8l-1.96-4.31h-11.93l-1.96,4.31c-.16,.4-.52,.8-1.16,.8h-3.47c-.6,0-.92-.52-.68-1.04Zm17.24-8.5l-3.99-8.78h-.12l-3.91,8.78h8.02Z"/><path class="cls-1" d="M127.3,36.88c0-.4,.36-.76,.76-.76h3.71c.4,0,.76,.36,.76,.76v26.42c0,.4-.36,.76-.76,.76h-3.71c-.4,0-.76-.36-.76-.76v-26.42Z"/></g></g></g></svg>